<svg xmlns="http://www.w3.org/2000/svg" viewBox="0 0 1080 1080"><title>draft-facebook</title><g id="Layer_2" data-name="Layer 2"><g id="Layer_1-2" data-name="Layer 1"><path d="M540,0C241.77,0,0,241.77,0,540s241.77,540,540,540,540-241.77,540-540S838.23,0,540,0ZM698.29,311.27a8.62,8.62,0,0,1-8.61,8.61H621.05a30.49,30.49,0,0,0-30.49,30.49v71.85h97.6a8.62,8.62,0,0,1,8.59,9.35l-8.56,101.27a8.62,8.62,0,0,1-8.59,7.89h-89V876.85a8.62,8.62,0,0,1-8.61,8.62H459.12a8.62,8.62,0,0,1-8.61-8.62V540.73H389.1a8.62,8.62,0,0,1-8.62-8.61V430.84a8.62,8.62,0,0,1,8.62-8.62h61.41V324.59A123.21,123.21,0,0,1,573.72,201.38h116a8.61,8.61,0,0,1,8.61,8.61Z"/></g></g></svg>