<svg xmlns="http://www.w3.org/2000/svg" viewBox="0 0 1080 1080"><title>draft-whatsapp</title><g id="Layer_2" data-name="Layer 2"><g id="Layer_1-2" data-name="Layer 1"><path d="M567.1,230.72c-156.75,0-284.29,127.53-284.29,284.29A283.53,283.53,0,0,0,324.39,662.4l7.37,12.11-28.4,106L410,751.94l12,7.16A283.77,283.77,0,0,0,567.1,799.29c156.75,0,284.29-127.52,284.29-284.28S723.85,230.72,567.1,230.72ZM742.44,616.81c-10.58,25.68-36.86,42.18-63.51,47.24-25.45,4.83-46.46-3.28-70-11.06-21-7-41.32-17.07-60.16-28.61-37.72-23.1-70.29-54-96.47-89.58A388,388,0,0,1,430,501c-9-15.45-17.1-31.7-21.31-49.11A99.65,99.65,0,0,1,406,429.66c-.3-26.38,9.76-53,30.62-70,12.09-9.84,29.95-14.13,43.53-6.46,14.75,8.33,22.4,29.34,29.24,44.07,5.35,11.53,11.42,26.67,9.22,39.61S506.11,460.76,498,470.36c-5.51,6.49-6.33,12-1.76,19,27,45,64.53,77.71,113.47,97.21,6.66,2.68,11.84,1.84,16.18-3.51,8.44-10.42,16.77-30.84,29.81-36.17,17-7,35.77,2.68,50.2,11.31,13.43,8,35.91,17.9,39.53,34.51C747.14,600.74,745.56,609.21,742.44,616.81ZM540,0C241.77,0,0,241.77,0,540s241.77,540,540,540,540-241.77,540-540S838.23,0,540,0Zm27.1,865.56a349.62,349.62,0,0,1-166.63-42.48L209.64,874.2l50.89-189.85a349.32,349.32,0,0,1-44-169.34c0-193.29,157.26-350.55,350.55-350.55S917.65,321.72,917.65,515,760.39,865.56,567.1,865.56Z"/></g></g></svg>