<svg xmlns="http://www.w3.org/2000/svg" viewBox="0 0 1080 1080"><title>draft-instagram</title><g id="Layer_2" data-name="Layer 2"><g id="Layer_1-2" data-name="Layer 1"><path d="M657.54,540A112.89,112.89,0,1,1,544.66,427.12,113,113,0,0,1,657.54,540ZM832.18,397.15v285.7c0,81.4-66.23,147.61-147.63,147.61H398.87c-81.4,0-147.62-66.21-147.62-147.61V397.15c0-81.4,66.22-147.61,147.62-147.61H684.55C766,249.54,832.18,315.75,832.18,397.15ZM720.88,540c0-97.17-79.06-176.22-176.22-176.22S368.43,442.83,368.43,540s79.06,176.22,176.23,176.22S720.88,637.17,720.88,540Zm52.23-172.28a41.95,41.95,0,1,0-42,41.95A42,42,0,0,0,773.11,367.72ZM1080,540c0,298.23-241.77,540-540,540S0,838.23,0,540,241.77,0,540,0,1080,241.77,1080,540ZM899.5,397.15c0-118.52-96.43-214.93-215-214.93H398.87c-118.52,0-214.94,96.41-214.94,214.93v285.7c0,118.52,96.42,214.93,214.94,214.93H684.55c118.52,0,215-96.41,215-214.93Z"/></g></g></svg>