<svg xmlns="http://www.w3.org/2000/svg" viewBox="0 0 1080 1080"><title>draft-twitter</title><g id="Layer_2" data-name="Layer 2"><g id="Layer_1-2" data-name="Layer 1"><path d="M540,0C241.77,0,0,241.77,0,540s241.77,540,540,540,540-241.77,540-540S838.23,0,540,0ZM887.65,332.32c0,1.72-8.38,5.9-11.87,10.6-15.55,20.93-40.71,39.67-61.55,55.33-3,2.27-8.11,4.65-8.11,8.95,0,109.91-28.08,219.69-108.19,299.29-102,101.36-255.08,128.94-391,91.41a372.9,372.9,0,0,1-75.6-30.24c-8-4.36-15.85-8.87-23.56-14-1.95-1.58-3.41-3-1.74-4.07,1.65-.83,2.92-.89,9,0,38,3.75,77.15-1.91,113.1-14.47,19.77-6.91,62.23-20.8,74.48-39.47.28-.43.57-.43.87-.88-4.95-1.16-9.9-1.16-14.84-2-36.92-10.55-86.22-29.07-109-91.31-1.45-3.64,0-5.53,3.78-4.8,30.39,2.38,41.3.72,51.9-1.61a82,82,0,0,1-17.58-5.37c-46.51-17.7-80.48-63.06-86.67-112.11a83.93,83.93,0,0,1-.87-15.7c.29-3.64,1.89-4.8,5.1-2.77,23.91,12.37,50.74,15.27,52.91,14.83-5.95-4.65-11.48-9.74-16.85-14.83-40.32-38.2-56-115.93-23.71-164.31,2.63-3.93,4.37-3.93,7.57-.28C329,378.57,419.84,417.79,529.46,434.11c2.9.43,3.18,0,2.75-3.2-2.85-19.32-3.23-38.21,1.43-57.32a139.35,139.35,0,0,1,27.11-54.28,145.12,145.12,0,0,1,45.38-37.06,141.76,141.76,0,0,1,56.26-15.89,134.5,134.5,0,0,1,59.3,9.55,141.41,141.41,0,0,1,38.68,23.68,65.07,65.07,0,0,1,7,7.14,5.45,5.45,0,0,0,5.57,1.46,344.8,344.8,0,0,0,79.94-30.54,4.38,4.38,0,0,1,3.83-.3,2.73,2.73,0,0,1,.67,3.5,120.85,120.85,0,0,1-21.3,40.74c-6.38,7.93-20.18,27.53-31,29.34,22.81-3.82,50.36-9.63,71.49-19.19,2.7-1.23,11.08-1.76,11.08,0Z"/></g></g></svg>