<svg xmlns="http://www.w3.org/2000/svg" viewBox="0 0 1080 1080"><title>draft-youtubr</title><g id="Layer_2" data-name="Layer 2"><g id="Layer_1-2" data-name="Layer 1"><path d="M641.87,551.5l-168,83.14c-6.59,3.57-29-1.2-29-8.7V455.29c0-7.59,22.56-12.35,29.16-8.59l160.85,87.51C641.62,538.05,648.7,547.81,641.87,551.5ZM1080,540c0,298.23-241.77,540-540,540S0,838.23,0,540,241.77,0,540,0,1080,241.77,1080,540ZM862.25,444.28A146.54,146.54,0,0,0,715.71,297.73H341A146.55,146.55,0,0,0,194.42,444.28V618.67A146.55,146.55,0,0,0,341,765.22H715.71A146.54,146.54,0,0,0,862.25,618.67Z"/></g></g></svg>