<svg xmlns="http://www.w3.org/2000/svg" viewBox="0 0 1080 1080"><title>draft-linkedin</title><g id="Layer_2" data-name="Layer 2"><g id="Layer_1-2" data-name="Layer 1"><path d="M540,0C241.77,0,0,241.77,0,540s241.77,540,540,540,540-241.77,540-540S838.23,0,540,0ZM401,806H282.84V426.34H401ZM342,374.52A68.44,68.44,0,1,1,410.39,306,68.5,68.5,0,0,1,342,374.52ZM843.15,806H725.21V621.44c0-44.07-.86-100.69-61.34-100.69-61.44,0-70.81,48-70.81,97.47V806h-118V426.34H588.31v51.93h1.55c15.79-29.88,54.28-61.33,111.76-61.33,119.49,0,141.53,78.59,141.53,180.85Z"/></g></g></svg>